<svg xmlns="http://www.w3.org/2000/svg" width="41" height="25" fill="none" viewBox="0 0 57 41"><path fill="#006C35" d="M50.667.639H6.333c-1.68 0-3.29.644-4.478 1.79A6 6 0 0 0 0 6.75v27.5c0 1.62.667 3.175 1.855 4.321a6.45 6.45 0 0 0 4.478 1.79h44.334c1.68 0 3.29-.644 4.478-1.79A6 6 0 0 0 57 34.25V6.75c0-1.62-.667-3.175-1.855-4.321a6.45 6.45 0 0 0-4.478-1.79"/><path fill="#fff" d="M14.121 14.465c1 .092.448-1.633.81-1.946.069-.154.196-.156.205.04v1.463c-.01.477.315.616.567.715.263-.02.437-.01.54.236l.123 2.533s.608.168.637-1.426c.03-.935-.193-1.717-.062-1.899.005-.179.24-.19.405-.102.262.177.379.397.784.31.62-.164.99-.454 1-.912-.037-.436-.088-.871-.283-1.306.027-.08-.118-.285-.091-.364.11.168.28.154.318 0-.105-.335-.268-.655-.534-.795-.218-.186-.538-.148-.655.24-.054.446.167.978.503 1.41.071.17.173.451.128.705-.178.098-.359.058-.508-.095 0 0-.492-.356-.492-.435.131-.807.03-.899-.043-1.122-.05-.308-.203-.408-.326-.618-.124-.126-.29-.126-.37 0-.218.363-.116 1.145.042 1.495.113.321.287.524.204.524-.068.182-.207.14-.308-.07-.146-.434-.175-1.08-.175-1.372-.044-.36-.091-1.132-.337-1.328-.15-.197-.373-.102-.451.08a6 6 0 0 0 .024 1.048c.168.579.221 1.09.304 1.684.022.796-.477.345-.455-.05.116-.511.086-1.318-.017-1.523-.08-.203-.178-.255-.374-.221-.155-.012-.557.412-.671 1.115 0 0-.097.362-.138.685-.055.363-.302.62-.477-.05-.15-.488-.242-1.69-.494-1.41-.072.94-.16 2.593.667 2.761"/><path fill="#fff" d="M15.627 15.151c-.823.016-2.028 1.044-2.062 1.614.868-.404 1.722-.792 2.605-1.207-.143-.207-.008-.391-.543-.407"/><path fill="#fff" d="M20.166 18.233c.382-1.227-.061-2.131.146-2.127.438.457 1.053.061 1.187-.098.059-.08.203-.131.304-.027.344.238.949.125 1.074-.293q.119-.631.146-1.273c-.28.084-.49.14-.509.252l-.058.364c-.024.117-.266.122-.276-.028-.106-.466-.546-.527-.812.196-.179.14-.502.168-.537-.042.043-.484-.16-.55-.565-.322-.13-.961-.261-1.88-.391-2.84.17-.005.325.116.478-.07-.17-.51-.527-1.548-.725-1.623-.097-.113-.179-.043-.304-.014-.212.066-.41.243-.348.587.251 1.474.416 2.597.666 4.072.038.172-.11.4-.304.377-.328-.214-.41-.648-.97-.63-.407.005-.871.43-.928.84-.068.326-.092.68 0 .966.285.33.628.298.928.223.245-.098.45-.336.535-.28.058.07.014.853-1.16 1.455-.71.307-1.275.378-1.58-.182-.188-.35.015-1.679-.45-1.37-1.372 3.415 3.215 3.888 3.728.14.05-.154.242-.308.276-.056-.107 3.395-3.549 3.628-4.133 2.56-.146-.252-.188-.81-.203-1.147-.087-.668-.45-.41-.506.25-.059.369-.043.473-.043.826.182 2.681 4.615 1.529 5.334-.686m-1.71-2.32c-.028.053-.153.031-.245.031-.105-.004-.154-.021-.217-.102-.029-.092.06-.179.1-.248.049-.08.313-.165.407.061a.25.25 0 0 1-.045.259"/><path fill="#fff" d="M21.536 12.875c.276-.098 1.582-1.539 1.582-1.539-.068-.056-.128-.097-.196-.154-.073-.06-.065-.122 0-.182.323-.181.22-.58.05-.762a.8.8 0 0 0-.703.006c-.226.21-.28.546-.101.756.174.08.348.25.233.343-.534.55-1.997 1.498-1.827 1.532.036.046.934.044.962 0m.968-2.263c.084-.02.191.052.242.16.05.106.024.208-.059.228h-.003c-.082.02-.19-.052-.24-.159s-.023-.209.06-.229m-8.473 8.754c-.215.424-.305.133-.324-.103a5.2 5.2 0 0 1 .061-1.19c.054-.337 0-.234-.11-.098-.49.751-.532 1.876-.262 2.21.143.16.379.23.554.178.308-.129.442-.73.37-.95-.105-.153-.186-.178-.289-.047m16.12-7.956c.564.73 1.099 1.474 1.623 2.232.103.657.177 1.299.222 1.936.087 1.228.112 2.557.033 3.851.237.01.622-.373.755-.93.087-.772-.031-2.145-.04-2.6q-.015-.429-.042-.856a42 42 0 0 1 1.826 3.158c.217-.098.169-1.268.042-1.433-.475-.983-1.129-1.954-1.338-2.327a18 18 0 0 0-.657-.976 11 11 0 0 0-.133-1.067c-.098-.654.28.072.228-.308-.122-.654-.498-1.096-.939-1.695-.142-.194-.137-.233-.358.048a1.15 1.15 0 0 0-.104.536 4 4 0 0 0-.22-.283q-.36-.298-.72-.592c-.16-.11-.55-.309-.62.021-.032.231-.02.466.035.694.041.163.287.435.407.59m1.172-.037c.03.127.062.254.082.384l.024.123a6 6 0 0 0-.207-.262c-.26-.297-.045-.233.1-.245"/><path fill="#fff" d="M34.705 18.503c-.551.555-1.346 1.238-2.21 1.554-.094.1.23.533.649.533.701-.08 1.319-.46 1.89-1.46.154-.233.423-.732.43-1.12.052-2.27-.118-4.038-.47-5.679a.9.9 0 0 1 .018-.396c.044-.052.2 0 .282-.128.119-.12-.318-1.097-.568-1.473-.09-.168-.12-.281-.266.02-.156.245-.258.67-.246 1.068.334 2.235.437 4.192.656 6.427.017.216-.016.53-.165.654m9.23-5.668c-.023-.159-.096-.529-.067-.576.044-.113.274.012.356-.117.12-.118-.592-1.001-.84-1.377-.091-.168-.121-.281-.268.02-.155.244-.21.683-.148 1.068.372 2.427.65 4.252.707 6.404-.034.205-.04.315-.14.572-.22.271-.462.61-.692.776-.228.163-.714.32-.874.441-.502.283-.503.605-.095.616.7-.08 1.53-.134 2.101-.969.154-.232.336-.863.344-1.25.052-2.271-.03-3.967-.383-5.608m-5.305 1.89c.006-.312.036-.724.054-.982.008-.097.032-.205.127-.23.096-.024.267.095.269-.006-.02-.197-.06-.49-.176-.63-.158-.225-.578-.17-.652.184.001.132.063.202.052.321-.02.067-.092.113-.265.034.029-.025-.112-.213-.112-.213-.135-.08-.315.005-.43.077a.62.62 0 0 0-.039.504c.19.347.854.935 1.172.941"/><path fill="#fff" d="M38.407 12.068q.697.823 1.414 1.67c.103 1.262.13 2.295.231 3.557-.014.534-.185 1-.348 1.068 0 0-.246.137-.41-.014-.12-.047-.6-.772-.6-.772-.246-.217-.407-.155-.582 0-.48.448-.698 1.288-1.024 1.866-.085.13-.323.24-.587-.01-.67-.884-.277-2.141-.36-1.817-.597.649-.334 1.723-.2 1.955.197.379.357.623.74.811.349.248.62.092.77-.08.351-.354.356-1.247.52-1.428.115-.325.408-.27.548-.125.13.176.3.319.5.417.327.28.718.33 1.103.075.263-.142.435-.327.589-.692.17-.44.077-2.463.043-3.676.245.306.484.625.726.944.106 1.013.167 2.022.132 3.051-.026.207.744-.61.737-.999-.003-.313 0-.597 0-.865a25 25 0 0 1 1.07 1.68c.213-.108.143-1.261.009-1.42-.391-.632-.912-1.29-1.272-1.761-.023-.06-.036-.127-.065-.184-.144-.322-.053-.582-.122-.924-.066-.344-.049-.857-.151-1.265-.029-.159-.114-.67-.09-.717.042-.114.2.003.278-.128.115-.122-.4-1.413-.663-1.783-.096-.165-.267-.108-.479.16-.194.178-.122.581-.047.965.185.928.34 1.82.473 2.7a90 90 0 0 0-.863-1.089l-.012-.067c0-.017-.043-.8-.081-.987-.006-.075-.025-.098.057-.088.087.07.098.075.154.099.088.015.166-.13.113-.263l-.818-1.454c-.065-.063-.15-.13-.253.017a.57.57 0 0 0-.203.432c.025.344.087.695.11 1.04l.036.187c-.037-.041-.081-.094-.1-.112-.695-.706.32-.114-.133-.66-.383-.406-.494-.533-.823-.777-.165-.103-.265-.298-.319.035a7 7 0 0 0-.023.878c0 .14.147.397.275.55m-14.093 1.649c.399.159.654-.575.818-1.378.111-.226.197-.251.254-.135-.015 1.07.079 1.306.364 1.632.635.473 1.16.06 1.203.02l.494-.477c.11-.111.257-.12.412-.02.152.132.131.36.454.52.273.105.855.024.99-.202.182-.3.226-.403.309-.516.13-.167.351-.092.351-.04-.02.093-.15.186-.062.353.155.111.19.04.282.015.323-.15.564-.825.564-.825.014-.252-.132-.23-.227-.179-.123.072-.131.097-.255.17-.158.023-.463.124-.614-.102-.155-.273-.158-.651-.275-.925 0-.02-.206-.432-.015-.458.097.017.301.069.334-.096.1-.162-.216-.624-.432-.857-.188-.2-.45-.224-.701-.02-.178.157-.152.331-.187.498a.75.75 0 0 0 .166.676c.176.335.497.767.391 1.372 0 0-.186.288-.514.251-.136-.029-.358-.086-.475-.926-.089-.637.022-1.528-.258-1.945-.102-.252-.174-.495-.421-.064-.067.17-.352.426-.145.957.17.334.238.88.162 1.488-.117.172-.143.23-.296.403-.215.223-.448.166-.627.082-.168-.108-.298-.165-.374-.51.014-.55.046-1.451-.058-1.642-.154-.297-.407-.19-.517-.1-.52.46-.777 1.235-.934 1.85-.144.45-.297.321-.405.14-.263-.239-.28-2.098-.599-1.79-.511 1.396.289 2.93.843 2.78"/><path fill="#fff" d="m31.883 16.717-.152-.084-2.978-.013c-.154-.057-.108-.106 0-.146.711-.093 1.976-.291 2.06-1.463-.014-.61-.272-1.01-1.048-1.12-.569.043-.976.576-.91 1.161-.027.159.053.468-.113.503-1.094.096-2.286.756-2.326 1.23-.067.044-.215-.084-.196-.286a5.5 5.5 0 0 0-.752-2.454c-.346-.333-.238-.223-.469-.065-.149.165-.176.278-.168.606 0 .012.279.762.515 1.288.157.54.304 1.155.198 1.737-.368.77-1.107 1.46-1.82 1.835-.367.115-.682.073-.76-.006-.226-.147-.215-.417-.197-.422.6-.405 1.287-.73 1.825-1.82.158-.415.206-.667.05-1.31a1.23 1.23 0 0 0-.313-.608c.097-.061.374.142.417.021a1.9 1.9 0 0 0-.524-.932c-.214-.188-.447-.21-.643-.036-.222.119-.27.543-.163.916.117.281.435.329.663.892 0 .013.082.422-.035.583-.093.28-1.305 1.199-1.371 1.24-.033.04-.019-.02-.024-.173-.008-.186.078-.626.054-.629-.394.246-.526 1-.597 1.222-.997.665-2.126 1.16-2.779 1.835-.34.512 2.34-.588 2.653-.721.07.049.061.28.248.486.279.363.868.588 1.446.449.966-.338 1.524-.973 2.091-1.677.081-.115.208-.202.325-.115.39.842 1.515 1.438 2.967 1.5.337-.395.174-.586.038-.669 0-.012-.717-.275-.826-.538-.067-.238.095-.447.418-.606.932-.109 1.849-.23 2.737-.505.01-.287.182-.718.301-.904.114-.19.176-.133.158-.202m-2.45-1.79c.045-.072.192-.069.33.009.138.076.215.199.17.27-.045.074-.194.07-.331-.009-.138-.076-.212-.197-.168-.27m-1.198 2.903c-.32.105-.627.188-.627.634.119.62-.163.408-.329.322-.196-.136-.749-.464-.828-1.173-.013-.17.125-.312.345-.312.331.087.82.093 1.245.136.346.021.519.284.194.393m-11.03-6.883c.341.159.987.092.959-.443 0-.047-.013-.206-.018-.25-.07-.156-.26-.118-.304.045-.014.054.024.14-.025.167-.029.027-.138.01-.133-.136 0-.048-.037-.098-.057-.127-.022-.014-.035-.018-.075-.018-.047.001-.047.013-.072.053-.011.038-.027.078-.027.122-.006.052-.027.07-.067.08-.044 0-.034.004-.07-.019-.021-.022-.049-.032-.049-.07a.4.4 0 0 0-.022-.131c-.019-.025-.049-.035-.084-.045-.186 0-.199.207-.188.286-.017.014-.024.384.231.486"/><path fill="#fff" d="M27.727 14.43c0-.047-.036-.096-.057-.127-.022-.013-.035-.018-.074-.018-.048.002-.046.014-.073.054-.011.04-.027.077-.027.122-.005.053-.027.072-.067.08-.044 0-.034.004-.07-.018-.023-.022-.05-.032-.05-.07a.4.4 0 0 0-.022-.131c-.02-.025-.05-.035-.084-.043-.187 0-.2.206-.19.284-.014.015-.022.384.233.487.343.158 1.159.066.96-.443a4 4 0 0 0-.018-.25c-.07-.157-.261-.118-.304.044-.013.054.025.14-.026.167-.025.027-.136.01-.13-.138m5.379-1.08c.342.159.986.092.958-.441a4 4 0 0 0-.018-.251c-.07-.157-.26-.118-.302.044-.014.054.023.14-.027.167-.029.027-.138.012-.133-.136 0-.048-.037-.098-.057-.127-.022-.014-.035-.018-.076-.018-.048.003-.046.014-.073.053-.011.04-.027.078-.027.122-.006.054-.027.072-.066.08-.045 0-.035.004-.072-.017-.022-.023-.047-.032-.047-.07a.4.4 0 0 0-.022-.133c-.02-.025-.05-.035-.086-.043-.187 0-.2.206-.188.284-.011.015-.02.384.236.486m.23-2.065c.123.33-.093.644.036.69.115.052.28-.34.34-.703.071-.293-.146-.893-.453-1.017-.187-.043-.453.064-.367.305-.043.117.377.51.445.724m3.16 7.736c.239.002.514-.527.631-1.05.065-.722-.044-1.16-.063-1.585-.02-.423-.496-3.655-.594-3.975-.115-.607.464-.082.4-.434-.2-.445-.699-1.091-.857-1.478-.095-.165-.054-.311-.266-.043-.195.62-.263 1.123-.189 1.508.504 2.537 1.02 4.645.938 7.057m5.947-6.63c.055.165-.084.698.031.747.106.055.255-.368.31-.761.03-.216-.132-.967-.413-1.102-.17-.046-.413.07-.334.332-.04.127.344.551.406.784M21.67 17.976c.103.041.244-.27.297-.559.03-.159-.128-.71-.395-.81-.165-.033-.39.01-.32.245-.008.127.364.28.386.574.054.122-.079.515.032.55m-7.214-7.05c.052.126-.052.531.057.57.1.042.24-.282.293-.58.03-.165.006-.724-.39-.838-.162-.036-.389.052-.315.252-.037.094.297.418.355.595m7.762 1.792c-.303.159-.422.629-.232.902.176.243.455.153.493.153.298.035.473-.537.473-.537s.01-.16-.343.143c-.15.028-.168-.026-.204-.108a.67.67 0 0 1 .045-.447c.051-.142-.063-.204-.232-.106m2.283-1.762a.4.4 0 0 0 .187-.266c.046-.223-.246.106-.282-.143-.065-.231.122-.326.3-.549.005-.154.002-.263-.215-.137-.152.099-.456.401-.465.75-.01.197-.048.195.087.32.096.137.193.123.388.025m2.057.12c.196-.514.196-.731.21-.95-.06-.331-.293-.32-.446.048-.067.139-.144.87-.132.87-.052.22.236.312.368.031m12.935 3.64s-1.588 1.09-1.626 1.127c-.158.135-.079.611 0 .556.113.043 1.71-1.003 1.679-1.125.074.003.11-.613-.053-.558M39.3 17.67c.106.055.386-.28.375-.697.032-.215-.08-1.005-.36-1.14-.17-.046-.398.095-.32.356-.039.125.197.564.259.796.055.167-.07.636.046.685m-8.994 2.285c0 .014.135.125.293.037.333-.124.542-.243 1.007-.342.122-.002.114-.318-.079-.329-.252.012-.486.025-.738.217-.155.034-.18-.056-.215-.139-.038-.203.087-.344.06-.495.01.01-.144-.127-.3-.05-.009 0-.35.223-.46.379-.068.05-.06.093-.04.177.053.116.146.08.25.026.14-.019.207.07.195.23-.066.204.027.278.027.29m10.373.254c-.053.087-.087.218.074.26.298.08.983-.35.983-.358.111-.08.075-.232.065-.232-.065-.072-.21-.03-.308-.041-.046 0-.202-.023-.127-.155a1 1 0 0 0 .123-.23c.046-.1.007-.165-.161-.219-.17-.03-.238-.015-.426 0-.101.021-.136.064-.155.183.008.18.12.172.237.243.068.084.113.16-.004.297-.111.099-.189.154-.301.252m-.304 7.929H38v-.764a.75.75 0 0 0-.232-.54.8.8 0 0 0-.56-.224c-.21 0-.411.08-.56.224a.75.75 0 0 0-.232.54v.764h-19s0 1.528 4.75 1.528h14.25v.764a.75.75 0 0 0 .232.54c.149.143.35.224.56.224s.411-.081.56-.224a.75.75 0 0 0 .232-.54v-.764h1.583v.764a.75.75 0 0 0 .232.54c.148.143.35.224.56.224s.411-.081.56-.224a.75.75 0 0 0 .231-.54v-1.528a.75.75 0 0 0-.231-.54.8.8 0 0 0-.56-.224"/></svg>