<svg width="41" height="25" viewBox="0 0 57 41" fill="none" xmlns="http://www.w3.org/2000/svg">
<path d="M50.6667 0.638916H6.33333C4.65363 0.638916 3.04272 1.28276 1.85499 2.42882C0.66726 3.57487 0 5.12926 0 6.75003L0 34.25C0 35.8708 0.66726 37.4252 1.85499 38.5712C3.04272 39.7173 4.65363 40.3611 6.33333 40.3611H50.6667C52.3464 40.3611 53.9573 39.7173 55.145 38.5712C56.3327 37.4252 57 35.8708 57 34.25V6.75003C57 5.12926 56.3327 3.57487 55.145 2.42882C53.9573 1.28276 52.3464 0.638916 50.6667 0.638916Z" fill="#006C35"/>
<path d="M14.1211 14.4653C15.1218 14.557 14.5692 12.8321 14.9318 12.5189C14.9998 12.3646 15.1265 12.3631 15.136 12.5586V14.0222C15.1265 14.4989 15.4511 14.6379 15.7028 14.7372C15.9657 14.7174 16.1398 14.7265 16.2428 14.9725L16.3663 17.5056C16.3663 17.5056 16.9743 17.6736 17.0028 16.0801C17.0328 15.1451 16.8096 14.3629 16.941 14.1811C16.9458 14.0024 17.1817 13.9917 17.3463 14.0788C17.6076 14.256 17.7248 14.476 18.1301 14.3889C18.7492 14.2254 19.1197 13.9351 19.1292 13.4768C19.0928 13.0414 19.0421 12.606 18.8473 12.1706C18.8743 12.0911 18.7286 11.8864 18.7555 11.807C18.8663 11.975 19.0358 11.9613 19.0738 11.807C18.9693 11.4724 18.8062 11.1515 18.5402 11.0125C18.3217 10.8261 18.0018 10.8643 17.8847 11.2524C17.8308 11.6985 18.0525 12.2301 18.3882 12.6625C18.4594 12.8321 18.5608 13.1132 18.5164 13.3668C18.3375 13.4646 18.157 13.4249 18.0082 13.2721C18.0082 13.2721 17.5158 12.9161 17.5158 12.8367C17.6472 12.03 17.5458 11.9383 17.473 11.7153C17.4223 11.4067 17.2703 11.3074 17.1468 11.0965C17.0233 10.9713 16.8571 10.9713 16.7779 11.0965C16.5594 11.4601 16.6608 12.2424 16.8191 12.5922C16.9315 12.9131 17.1057 13.1163 17.0233 13.1163C16.9553 13.2981 16.8159 13.2553 16.7146 13.046C16.5689 12.6121 16.5404 11.9658 16.5404 11.674C16.4961 11.3135 16.4486 10.542 16.2032 10.3464C16.0528 10.1493 15.8295 10.244 15.7519 10.4258C15.7361 10.7833 15.7329 11.1424 15.7757 11.4739C15.9435 12.0529 15.9973 12.5632 16.0797 13.1575C16.1018 13.9535 15.6031 13.5028 15.6253 13.1086C15.7408 12.5968 15.7108 11.7901 15.6078 11.5854C15.5271 11.3822 15.4305 11.3303 15.2342 11.3639C15.079 11.3517 14.6768 11.7764 14.5628 12.4792C14.5628 12.4792 14.4663 12.8413 14.4251 13.1636C14.3697 13.5272 14.1227 13.7839 13.9485 13.1132C13.7981 12.6258 13.7063 11.4235 13.4545 11.7046C13.3817 12.6442 13.2946 14.2972 14.1211 14.4653Z" fill="white"/>
<path d="M15.6269 15.1514C14.8036 15.1666 13.5987 16.1948 13.5654 16.7647C14.4331 16.3614 15.2865 15.9733 16.17 15.5578C16.0275 15.3515 16.1621 15.1666 15.6269 15.1514Z" fill="white"/>
<path d="M20.1663 18.2328C20.5479 17.006 20.1045 16.1015 20.3119 16.1061C20.7505 16.5629 21.3649 16.1672 21.4994 16.0083C21.558 15.9289 21.7021 15.8769 21.8034 15.9808C22.147 16.2192 22.7519 16.1061 22.8769 15.6875C22.956 15.2671 23.0047 14.8418 23.0226 14.4149C22.7424 14.4989 22.5334 14.5554 22.5144 14.6669L22.4558 15.0305C22.432 15.1482 22.1898 15.1528 22.1803 15.003C22.0742 14.5371 21.634 14.476 21.368 15.1986C21.1891 15.3392 20.8661 15.3667 20.8313 15.1574C20.874 14.673 20.6714 14.6074 20.266 14.835C20.1362 13.874 20.0048 12.9558 19.8749 11.9949C20.0444 11.9903 20.1995 12.111 20.3531 11.9246C20.1837 11.4158 19.8259 10.3769 19.6279 10.3021C19.5314 10.189 19.449 10.2593 19.3239 10.2883C19.1118 10.354 18.9139 10.5312 18.9756 10.875C19.2274 12.3493 19.392 13.4722 19.6422 14.9465C19.6802 15.1192 19.5314 15.3468 19.3382 15.3239C19.0104 15.11 18.9281 14.6761 18.3676 14.6944C17.9607 14.699 17.4968 15.1237 17.4398 15.5347C17.3717 15.8601 17.3479 16.2146 17.4398 16.5003C17.7248 16.8303 18.0684 16.7982 18.3676 16.7233C18.613 16.6255 18.8173 16.3872 18.9028 16.4437C18.9614 16.5125 18.917 17.2962 17.7438 17.8982C17.0329 18.2053 16.4676 18.2755 16.1636 17.7164C15.9752 17.3665 16.1779 16.0374 15.7139 16.346C14.3412 19.7605 18.9281 20.2342 19.4411 16.4865C19.4902 16.3322 19.6834 16.1779 19.7166 16.43C19.6105 19.8247 16.1684 20.0585 15.5841 18.9905C15.4384 18.7385 15.3957 18.1793 15.3814 17.8432C15.2944 17.1755 14.9318 17.4322 14.8748 18.0937C14.8162 18.4619 14.832 18.5658 14.832 18.9187C15.0141 21.6 19.4474 20.448 20.1663 18.2328ZM18.4563 15.9136C18.4278 15.9655 18.3027 15.9442 18.2109 15.9442C18.1064 15.9396 18.0573 15.9228 17.9939 15.8418C17.9654 15.7501 18.0541 15.663 18.0937 15.5943C18.1428 15.5133 18.4072 15.4293 18.5006 15.6554C18.5179 15.6983 18.5229 15.7449 18.5151 15.7904C18.5073 15.8358 18.487 15.8784 18.4563 15.9136Z" fill="white"/>
<path d="M21.5363 12.875C21.8118 12.7772 23.118 11.3365 23.118 11.3365C23.05 11.28 22.9898 11.2387 22.9217 11.1822C22.8489 11.1211 22.8568 11.06 22.9217 11.0004C23.2447 10.8186 23.1418 10.4198 22.9724 10.238C22.8628 10.1862 22.7422 10.1597 22.6201 10.1608C22.4981 10.1618 22.378 10.1904 22.2694 10.2441C22.043 10.4534 21.9891 10.7896 22.168 11.0004C22.3422 11.0798 22.5164 11.2494 22.4008 11.3426C21.8672 11.8926 20.4042 12.8414 20.5736 12.875C20.61 12.9208 21.5078 12.9193 21.5363 12.875ZM22.5037 10.6123C22.5876 10.5925 22.6953 10.6643 22.746 10.7712C22.7966 10.8782 22.7697 10.9805 22.6874 11.0004H22.6842C22.6019 11.0203 22.4942 10.9484 22.4435 10.8415C22.3945 10.733 22.4214 10.6322 22.5037 10.6123ZM14.0313 19.3665C13.816 19.7897 13.7257 19.4994 13.7067 19.2626C13.682 18.8649 13.7027 18.4658 13.7685 18.0725C13.8223 17.7364 13.7685 17.8387 13.6576 17.9747C13.1684 18.7264 13.1256 19.8508 13.3964 20.1854C13.5389 20.3443 13.7748 20.4146 13.9505 20.3626C14.2577 20.2343 14.3923 19.6323 14.3195 19.4139C14.215 19.2596 14.1342 19.2351 14.0313 19.3665ZM30.1512 11.4098C30.7149 12.1401 31.25 12.8841 31.7741 13.6419C31.877 14.2989 31.9515 14.9405 31.9958 15.5776C32.0829 16.8059 32.1082 18.1351 32.029 19.4291C32.2665 19.4383 32.6513 19.0564 32.7843 18.4987C32.8714 17.7272 32.7526 16.3537 32.7447 15.8984C32.7342 15.6131 32.72 15.3279 32.702 15.0429C33.3258 16.0268 33.9338 17.0565 34.5275 18.2008C34.7445 18.103 34.697 16.9328 34.5703 16.7678C34.0953 15.7854 33.4414 14.8137 33.2324 14.4409C33.1548 14.3035 32.8904 13.9123 32.5753 13.4647C32.5482 13.1074 32.5039 12.7516 32.4423 12.3983C32.3441 11.7444 32.7225 12.4701 32.6703 12.0897C32.5484 11.4358 32.1715 10.9943 31.7314 10.3954C31.5889 10.2014 31.5936 10.1616 31.3735 10.4428C31.2958 10.6112 31.26 10.7948 31.269 10.979C31.2003 10.8815 31.1269 10.7872 31.049 10.6964C30.81 10.4974 30.5699 10.2998 30.3285 10.1036C30.1686 9.99359 29.7791 9.79498 29.7095 10.125C29.677 10.3563 29.6889 10.5914 29.7443 10.8186C29.7855 10.9821 30.0309 11.254 30.1512 11.4098ZM31.3229 11.3732C31.353 11.5 31.3846 11.6268 31.4052 11.7566L31.429 11.8804C31.3625 11.7908 31.2934 11.7032 31.2215 11.6176C30.9619 11.3212 31.1772 11.3854 31.3229 11.3732Z" fill="white"/>
<path d="M34.705 18.5032C34.154 19.0578 33.3592 19.7407 32.4947 20.0569C32.4012 20.1578 32.7258 20.5901 33.1438 20.5901C33.8452 20.5107 34.4627 20.1303 35.0343 19.1296C35.1879 18.8973 35.4571 18.3978 35.4634 18.0097C35.5157 15.7394 35.3462 13.9718 34.9932 12.331C34.9695 12.1993 34.976 12.0642 35.0122 11.9353C35.0565 11.8833 35.2117 11.9353 35.294 11.8069C35.4127 11.6878 34.9757 10.71 34.7256 10.3342C34.6369 10.1661 34.6068 10.053 34.4596 10.354C34.3044 10.5985 34.2015 11.0247 34.2142 11.4219C34.5482 13.6571 34.6512 15.6142 34.8697 17.8493C34.8871 18.0647 34.8538 18.3794 34.705 18.5032ZM43.9358 12.8351C43.9121 12.6762 43.8392 12.3065 43.8677 12.2592C43.9121 12.1461 44.1417 12.2714 44.224 12.1415C44.3443 12.0239 43.6318 11.1408 43.3832 10.765C43.293 10.5969 43.2629 10.4839 43.1157 10.7848C42.9605 11.0293 42.9067 11.4678 42.9684 11.8528C43.3405 14.2804 43.6176 16.1046 43.6746 18.2572C43.6413 18.4619 43.635 18.5719 43.5352 18.8286C43.3152 19.1005 43.0729 19.4397 42.8433 19.6047C42.6153 19.7682 42.1292 19.9255 41.9693 20.0462C41.4674 20.3289 41.4658 20.6512 41.8743 20.6619C42.5742 20.5825 43.4038 20.5275 43.9754 19.6933C44.129 19.4611 44.3111 18.8301 44.319 18.4421C44.3712 16.1718 44.2889 14.476 43.9358 12.8351ZM38.6301 14.725C38.6364 14.4133 38.6665 14.0008 38.6839 13.7426C38.6918 13.6464 38.7156 13.5379 38.8106 13.5135C38.9072 13.489 39.0782 13.6082 39.0797 13.5073C39.0607 13.3103 39.0196 13.0169 38.904 12.8779C38.7457 12.6518 38.3261 12.7068 38.2517 13.0612C38.2532 13.1926 38.315 13.2629 38.3039 13.3821C38.2849 13.4493 38.2121 13.4951 38.0395 13.4157C38.068 13.3912 37.9271 13.2033 37.9271 13.2033C37.7925 13.1239 37.612 13.2079 37.4964 13.2797C37.4546 13.3567 37.4296 13.4412 37.4231 13.528C37.4165 13.6147 37.4286 13.7018 37.4584 13.7839C37.6484 14.1307 38.3118 14.7189 38.6301 14.725Z" fill="white"/>
<path d="M38.407 12.0682C38.8709 12.6166 39.3444 13.1727 39.8209 13.738C39.9239 15 39.9508 16.0327 40.0521 17.2947C40.0379 17.8294 39.8669 18.2954 39.7038 18.3626C39.7038 18.3626 39.4584 18.5001 39.2937 18.3489C39.1734 18.3015 38.6936 17.5773 38.6936 17.5773C38.4482 17.3604 38.2867 17.4215 38.1125 17.5773C37.6312 18.025 37.4143 18.8652 37.0881 19.4427C37.0026 19.5726 36.7651 19.6826 36.5007 19.4336C35.8309 18.549 36.2236 17.2916 36.1413 17.6155C35.5444 18.2648 35.8072 19.3389 35.9418 19.5711C36.1381 19.95 36.298 20.1944 36.6812 20.3823C37.0295 20.6298 37.3019 20.474 37.4507 20.3014C37.8022 19.9484 37.8069 19.0547 37.9716 18.8744C38.0856 18.549 38.3785 18.604 38.5194 18.7491C38.6485 18.9249 38.8196 19.0679 39.0182 19.1662C39.3459 19.4458 39.737 19.4962 40.1218 19.2411C40.3846 19.099 40.5572 18.9141 40.7108 18.549C40.8818 18.109 40.7884 16.0862 40.7535 14.8732C40.9989 15.1787 41.238 15.498 41.4803 15.8173C41.5864 16.8302 41.6465 17.8386 41.6117 18.8683C41.5864 19.0746 42.3559 18.2572 42.3495 17.8691C42.3464 17.5559 42.3495 17.2718 42.3495 17.0044C42.72 17.5422 43.081 18.0968 43.4199 18.6834C43.632 18.5765 43.5624 17.423 43.4278 17.2641C43.0367 16.6316 42.5158 15.9732 42.1564 15.5026C42.1326 15.443 42.1199 15.3758 42.0914 15.3193C41.9474 14.9969 42.0376 14.7372 41.9695 14.395C41.903 14.0512 41.9204 13.5379 41.8175 13.13C41.789 12.9711 41.7035 12.4608 41.7289 12.4134C41.77 12.2989 41.9284 12.4165 42.0059 12.2851C42.1215 12.1629 41.6054 10.8719 41.3425 10.5022C41.2475 10.3372 41.0765 10.3937 40.8644 10.6626C40.6696 10.8398 40.7424 11.2432 40.8169 11.6266C41.0021 12.5555 41.1573 13.4462 41.2903 14.3277C41.0056 13.9625 40.7179 13.5994 40.4274 13.2384L40.4147 13.1712C40.4147 13.1544 40.3719 12.3707 40.3339 12.1843C40.3276 12.1094 40.3086 12.0865 40.3909 12.0957C40.478 12.1659 40.4891 12.1705 40.5445 12.195C40.6332 12.2102 40.7108 12.0651 40.6585 11.9322L39.8399 10.4777C39.775 10.4151 39.6895 10.3479 39.5866 10.4946C39.5227 10.5484 39.4715 10.6149 39.4366 10.6895C39.4016 10.7641 39.3837 10.845 39.3839 10.9269C39.4093 11.2707 39.471 11.6221 39.4948 11.9673L39.5296 12.1537C39.4932 12.1125 39.4489 12.0605 39.4299 12.0422C38.7348 11.3364 39.7497 11.9276 39.2969 11.3822C38.9137 10.9758 38.8029 10.849 38.4735 10.6046C38.3089 10.5022 38.2091 10.3066 38.1553 10.6397C38.1282 10.9317 38.1202 11.2252 38.1315 11.5182C38.1315 11.6587 38.2788 11.9154 38.407 12.0682ZM24.3138 13.7166C24.7128 13.8755 24.9677 13.1422 25.1324 12.3386C25.2432 12.1125 25.3287 12.088 25.3857 12.2041C25.3714 13.2736 25.4649 13.5104 25.7499 13.8358C26.3848 14.3094 26.9104 13.8954 26.9532 13.8557L27.4472 13.379C27.5564 13.2675 27.7037 13.2598 27.8589 13.3591C28.0109 13.4905 27.9903 13.7197 28.3133 13.8786C28.5856 13.984 29.1683 13.903 29.3029 13.6769C29.4849 13.3775 29.5293 13.2736 29.6116 13.1605C29.7414 12.994 29.9631 13.0689 29.9631 13.1208C29.9425 13.214 29.8127 13.3072 29.9014 13.4737C30.0565 13.5852 30.0914 13.5134 30.1832 13.489C30.5062 13.3393 30.7469 12.664 30.7469 12.664C30.7611 12.4119 30.6154 12.4333 30.5204 12.4852C30.3969 12.5571 30.389 12.5815 30.2655 12.6548C30.1072 12.6777 29.8016 12.7786 29.6512 12.5525C29.496 12.2805 29.4929 11.9016 29.3757 11.6282C29.3757 11.6083 29.1699 11.1958 29.3614 11.1698C29.458 11.1866 29.6623 11.2386 29.6955 11.0736C29.7953 10.9116 29.4786 10.4502 29.2633 10.2165C29.0749 10.0179 28.8136 9.99344 28.5619 10.1966C28.3845 10.354 28.4099 10.5282 28.375 10.6947C28.3463 10.8122 28.3463 10.9346 28.3752 11.0521C28.404 11.1696 28.4609 11.2789 28.5413 11.3715C28.717 11.7061 29.0384 12.1384 28.9324 12.7434C28.9324 12.7434 28.7455 13.0307 28.4178 12.994C28.2816 12.965 28.0599 12.9084 27.9428 12.0682C27.8541 11.4311 27.9649 10.5404 27.6847 10.1233C27.5834 9.87122 27.5105 9.6283 27.2635 10.0591C27.197 10.2287 26.912 10.4854 27.1194 11.0155C27.2889 11.3501 27.3569 11.8955 27.2809 12.5036C27.1638 12.6762 27.1384 12.7343 26.9849 12.9069C26.7695 13.13 26.5368 13.0734 26.3579 12.9894C26.19 12.8809 26.0602 12.8244 25.9842 12.4791C25.9984 11.9291 26.0301 11.0277 25.9256 10.8368C25.772 10.5404 25.5187 10.6473 25.4094 10.7375C24.8885 11.1973 24.632 11.9719 24.4753 12.5876C24.3312 13.0368 24.1776 12.9084 24.0699 12.7266C23.8071 12.4883 23.7897 10.629 23.4714 10.9361C22.96 12.3325 23.7596 13.8664 24.3138 13.7166Z" fill="white"/>
<path d="M31.8833 16.7174L31.7313 16.6334L28.753 16.6196C28.5995 16.5631 28.6454 16.5142 28.753 16.4745C29.464 16.3813 30.729 16.1827 30.813 15.0109C30.7987 14.4013 30.5406 14.001 29.7648 13.891C29.1964 13.9338 28.7895 14.467 28.8544 15.0521C28.8275 15.211 28.9082 15.5196 28.742 15.5548C27.6479 15.651 26.4556 16.311 26.416 16.7846C26.3495 16.8289 26.2007 16.7006 26.2197 16.4989C26.167 15.6363 25.9097 14.7969 25.4676 14.0453C25.1225 13.7123 25.2301 13.8223 24.999 13.9796C24.8501 14.1446 24.8232 14.2577 24.8311 14.5862C24.8311 14.5984 25.1098 15.3485 25.3457 15.8741C25.5025 16.4134 25.6497 17.0291 25.5436 17.6112C25.1763 18.3812 24.4369 19.0717 23.7244 19.446C23.357 19.5606 23.042 19.5194 22.9644 19.4399C22.738 19.2932 22.749 19.0228 22.7665 19.0183C23.3665 18.6134 24.0537 18.288 24.592 17.1987C24.7504 16.7831 24.7979 16.531 24.6411 15.8878C24.5976 15.6612 24.4896 15.4506 24.3292 15.2798C24.4258 15.2187 24.7029 15.4219 24.7456 15.3012C24.6654 14.9491 24.4837 14.6261 24.2215 14.3692C24.0078 14.1813 23.775 14.1599 23.5787 14.3326C23.357 14.4517 23.3095 14.8764 23.4156 15.2492C23.5328 15.5303 23.851 15.5777 24.079 16.1414C24.079 16.1537 24.1614 16.5631 24.0442 16.7235C23.9508 17.0046 22.7395 17.9228 22.673 17.9641C22.6398 18.0038 22.654 17.9442 22.6493 17.7914C22.6414 17.6051 22.7269 17.1651 22.7031 17.162C22.3089 17.408 22.1775 18.1612 22.1062 18.3842C21.1087 19.0488 19.9798 19.5438 19.3275 20.2191C18.987 20.7309 21.6676 19.6309 21.9795 19.498C22.0492 19.5469 22.0413 19.7776 22.2281 19.9838C22.5068 20.3474 23.0958 20.572 23.6737 20.433C24.6395 20.0953 25.1985 19.4598 25.7653 18.7555C25.846 18.6409 25.9727 18.5538 26.0899 18.6409C26.4794 19.4827 27.6051 20.0785 29.057 20.1412C29.3943 19.7455 29.2312 19.5545 29.095 19.472C29.095 19.4598 28.3778 19.197 28.2685 18.9342C28.202 18.6959 28.3635 18.4866 28.6865 18.3277C29.6191 18.2192 30.5359 18.0985 31.4241 17.8235C31.4336 17.5363 31.6062 17.1055 31.725 16.9191C31.839 16.7296 31.9007 16.7862 31.8833 16.7174ZM29.4339 14.9269C29.4782 14.8551 29.6255 14.8581 29.7632 14.936C29.901 15.0124 29.9785 15.1346 29.9326 15.2064C29.8883 15.2798 29.7395 15.2752 29.6017 15.1973C29.464 15.1209 29.3895 15.0002 29.4339 14.9269ZM28.2353 17.8296C27.9155 17.9351 27.6083 18.0176 27.6083 18.4637C27.727 19.0839 27.4452 18.8716 27.279 18.786C27.0826 18.6501 26.53 18.3216 26.4509 17.6127C26.4382 17.4431 26.576 17.301 26.796 17.301C27.127 17.3881 27.6162 17.3942 28.0405 17.437C28.3873 17.4584 28.5599 17.7212 28.2353 17.8296ZM17.2042 10.947C17.5462 11.1059 18.1922 11.0387 18.1637 10.5039C18.1637 10.4566 18.151 10.2977 18.1463 10.2549C18.0766 10.0976 17.8866 10.1357 17.8423 10.2992C17.828 10.3527 17.866 10.4382 17.817 10.4657C17.7885 10.4932 17.6792 10.4764 17.684 10.3298C17.684 10.2824 17.6475 10.232 17.627 10.203C17.6048 10.1892 17.5921 10.1846 17.5525 10.1846C17.505 10.1862 17.505 10.1984 17.4797 10.2381C17.4686 10.2763 17.4528 10.316 17.4528 10.3603C17.4465 10.4123 17.4259 10.4306 17.3863 10.4398C17.342 10.4398 17.3515 10.4444 17.3166 10.4214C17.2945 10.3985 17.2675 10.3894 17.2675 10.3512C17.2674 10.3065 17.2599 10.2622 17.2454 10.2198C17.2264 10.1953 17.1963 10.1846 17.1615 10.1755C16.9746 10.1755 16.962 10.3817 16.973 10.4612C16.9556 10.4749 16.9493 10.8446 17.2042 10.947Z" fill="white"/>
<path d="M27.7271 14.4302C27.7271 14.3829 27.6906 14.334 27.6701 14.3034C27.6479 14.2897 27.6352 14.2851 27.5956 14.2851C27.5481 14.2866 27.5497 14.2988 27.5228 14.3386C27.5117 14.3783 27.4959 14.4165 27.4959 14.4608C27.4911 14.5142 27.469 14.5326 27.4294 14.5402C27.3851 14.5402 27.3946 14.5448 27.3581 14.5234C27.336 14.5005 27.3091 14.4913 27.3091 14.4531C27.3091 14.4085 27.3016 14.3641 27.2869 14.3217C27.2679 14.2973 27.2378 14.2866 27.203 14.279C27.0161 14.279 27.0035 14.4852 27.013 14.5631C26.9987 14.5784 26.9908 14.9466 27.2457 15.0505C27.5893 15.2079 28.4047 15.1162 28.2052 14.6074C28.2019 14.5238 28.1961 14.4402 28.1878 14.3569C28.1181 14.1995 27.9266 14.2392 27.8838 14.4012C27.8711 14.4547 27.9091 14.5402 27.8585 14.5677C27.8331 14.5952 27.7223 14.5784 27.7271 14.4302ZM33.1056 13.3501C33.4476 13.509 34.0921 13.4417 34.0636 12.9086C34.0602 12.8249 34.0544 12.7413 34.0461 12.658C33.9765 12.5006 33.7865 12.5404 33.7437 12.7023C33.7295 12.7558 33.7675 12.8413 33.7168 12.8688C33.6883 12.8963 33.5791 12.8811 33.5838 12.7329C33.5838 12.6855 33.5474 12.6351 33.5268 12.6061C33.5046 12.5923 33.492 12.5877 33.4508 12.5877C33.4033 12.5908 33.4049 12.6015 33.378 12.6412C33.3669 12.6809 33.3511 12.7191 33.3511 12.7634C33.3447 12.8169 33.3241 12.8352 33.2846 12.8429C33.2402 12.8429 33.2497 12.8474 33.2133 12.8261C33.1911 12.8031 33.1658 12.794 33.1658 12.7558C33.1657 12.7106 33.1582 12.6658 33.1436 12.6229C33.1231 12.5984 33.0946 12.5877 33.0581 12.5801C32.8713 12.5801 32.8586 12.7863 32.8697 12.8642C32.8586 12.8795 32.8507 13.2477 33.1056 13.3501ZM33.3368 11.2845C33.4587 11.6145 33.2434 11.9292 33.3716 11.9751C33.4872 12.027 33.6519 11.6344 33.7121 11.2723C33.7833 10.979 33.5664 10.3786 33.2592 10.2548C33.0724 10.212 32.8064 10.319 32.8919 10.5604C32.8491 10.6765 33.2687 11.0706 33.3368 11.2845ZM36.4956 19.0212C36.7346 19.0227 37.0101 18.4941 37.1273 17.9701C37.1922 17.249 37.083 16.8105 37.064 16.3858C37.0434 15.9626 36.5684 12.7313 36.4702 12.4105C36.3546 11.804 36.9341 12.3295 36.8708 11.9766C36.6697 11.532 36.171 10.8858 36.0126 10.4992C35.9176 10.3342 35.9588 10.1876 35.7466 10.4565C35.5519 11.0752 35.4838 11.5794 35.5582 11.9644C36.0617 14.5005 36.5779 16.6088 36.4956 19.0212ZM42.4426 12.3906C42.498 12.5556 42.3586 13.0888 42.4742 13.1377C42.5803 13.1927 42.7291 12.7695 42.7846 12.3769C42.8146 12.1615 42.6516 11.4098 42.3713 11.2754C42.2003 11.2295 41.9581 11.3441 42.0372 11.6069C41.9976 11.7337 42.3808 12.1584 42.4426 12.3906ZM21.6708 17.9762C21.7737 18.0174 21.9146 17.7058 21.9685 17.417C21.9986 17.2581 21.8402 16.7066 21.5726 16.6073C21.408 16.5737 21.1831 16.6165 21.2528 16.8517C21.2449 16.9786 21.617 17.1313 21.6391 17.4262C21.693 17.5484 21.56 17.9411 21.6708 17.9762ZM14.4571 10.9255C14.5094 11.0523 14.4049 11.4572 14.5141 11.4954C14.6139 11.5381 14.7548 11.2142 14.8071 10.9163C14.8371 10.7513 14.8134 10.1922 14.4176 10.0776C14.2545 10.0424 14.0281 10.1295 14.1025 10.3297C14.0645 10.4244 14.3986 10.7483 14.4571 10.9255ZM22.2186 12.7176C21.9162 12.8765 21.7975 13.347 21.9875 13.6205C22.1632 13.8634 22.4419 13.7733 22.4799 13.7733C22.7776 13.8084 22.9533 13.2355 22.9533 13.2355C22.9533 13.2355 22.9628 13.0751 22.6097 13.3791C22.4609 13.4066 22.4419 13.3531 22.4055 13.2706C22.3694 13.1211 22.3856 12.9643 22.4514 12.8245C22.5021 12.6824 22.3881 12.6198 22.2186 12.7176ZM24.5018 10.9561C24.5506 10.927 24.5925 10.8882 24.6247 10.8424C24.6569 10.7966 24.6787 10.7447 24.6886 10.6902C24.7346 10.4672 24.4432 10.7956 24.4068 10.5466C24.3419 10.3159 24.5287 10.2212 24.7061 9.99814C24.7124 9.84383 24.7092 9.73536 24.4923 9.86064C24.3403 9.95994 24.0363 10.2624 24.0268 10.6108C24.0173 10.8079 23.9793 10.8063 24.1139 10.9316C24.2105 11.0676 24.3071 11.0538 24.5018 10.9561ZM26.5586 11.0752C26.7549 10.5619 26.7549 10.3449 26.7691 10.1265C26.709 9.79494 26.4762 9.80564 26.3226 10.1738C26.2561 10.3129 26.1786 11.0447 26.1912 11.0447C26.139 11.2631 26.4271 11.3563 26.5586 11.0752ZM39.4944 14.7159C39.4944 14.7159 37.9063 15.8052 37.8683 15.8434C37.71 15.9779 37.7891 16.4545 37.8683 16.3995C37.9807 16.4423 39.5783 15.3958 39.5466 15.2736C39.6211 15.2766 39.6575 14.6609 39.4944 14.7159ZM39.2996 17.6706C39.4057 17.7256 39.686 17.3911 39.6749 16.974C39.7066 16.7586 39.5941 15.9687 39.3155 15.8342C39.1445 15.7884 38.9165 15.929 38.9956 16.1902C38.9561 16.3155 39.192 16.754 39.2537 16.9862C39.3091 17.1527 39.1841 17.6217 39.2996 17.6706ZM30.3063 19.9562C30.3063 19.9699 30.4409 20.0815 30.5992 19.9929C30.9317 19.8691 31.1407 19.7499 31.6062 19.6506C31.7281 19.6491 31.7202 19.3329 31.5271 19.3222C31.2753 19.3344 31.041 19.3466 30.7892 19.5391C30.6341 19.5727 30.6087 19.4826 30.5739 19.4001C30.5359 19.1969 30.661 19.0563 30.6341 18.9051C30.6436 18.9142 30.49 18.7783 30.3332 18.8547C30.3253 18.8547 29.9833 19.0777 29.8741 19.2336C29.806 19.284 29.8139 19.3267 29.8345 19.4108C29.8867 19.5269 29.9801 19.4917 30.0846 19.4367C30.224 19.4184 30.2905 19.507 30.2794 19.6674C30.2129 19.8706 30.3063 19.9455 30.3063 19.9562ZM40.6787 20.2098C40.6265 20.2969 40.5916 20.4283 40.7531 20.4695C41.0508 20.5505 41.7364 20.1197 41.7364 20.112C41.8472 20.0311 41.8108 19.8798 41.8013 19.8798C41.7364 19.808 41.5907 19.8492 41.4926 19.8386C41.4466 19.8386 41.2915 19.8156 41.3659 19.6842C41.4182 19.6134 41.4598 19.5357 41.4894 19.4536C41.5353 19.3542 41.4957 19.2886 41.3279 19.2351C41.1585 19.2045 41.0904 19.2198 40.902 19.2351C40.8006 19.2565 40.7658 19.2992 40.7468 19.4184C40.7547 19.5987 40.8671 19.5895 40.9843 19.6613C41.0524 19.7454 41.0967 19.8217 40.9796 19.9577C40.8687 20.057 40.7911 20.112 40.6787 20.2098ZM40.3747 28.139H37.9997V27.3751C37.9997 27.1725 37.9163 26.9782 37.7679 26.8349C37.6194 26.6917 37.418 26.6112 37.2081 26.6112C36.9981 26.6112 36.7967 26.6917 36.6483 26.8349C36.4998 26.9782 36.4164 27.1725 36.4164 27.3751V28.139H17.4164C17.4164 28.139 17.4164 29.6667 22.1664 29.6667H36.4164V30.4306C36.4164 30.6332 36.4998 30.8275 36.6483 30.9708C36.7967 31.114 36.9981 31.1945 37.2081 31.1945C37.418 31.1945 37.6194 31.114 37.7679 30.9708C37.9163 30.8275 37.9997 30.6332 37.9997 30.4306V29.6667H39.5831V30.4306C39.5831 30.6332 39.6665 30.8275 39.8149 30.9708C39.9634 31.114 40.1648 31.1945 40.3747 31.1945C40.5847 31.1945 40.7861 31.114 40.9345 30.9708C41.083 30.8275 41.1664 30.6332 41.1664 30.4306V28.9029C41.1664 28.7003 41.083 28.506 40.9345 28.3627C40.7861 28.2194 40.5847 28.139 40.3747 28.139Z" fill="white"/>
</svg>
