<svg width="41" height="25" viewBox="0 0 47 34" fill="none" xmlns="http://www.w3.org/2000/svg">
<mask id="mask0_97_2949" style="mask-type:luminance" maskUnits="userSpaceOnUse" x="0" y="0" width="47" height="34">
<path d="M0 0H47V34H0V0Z" fill="white"/>
</mask>
<g mask="url(#mask0_97_2949)">
<path d="M0 0H47V34H0V0Z" fill="white"/>
<path fill-rule="evenodd" clip-rule="evenodd" d="M0 0V34H47V0H0Z" fill="#2E42A5"/>
<mask id="mask1_97_2949" style="mask-type:luminance" maskUnits="userSpaceOnUse" x="0" y="0" width="47" height="34">
<path fill-rule="evenodd" clip-rule="evenodd" d="M0 0V34H47V0H0Z" fill="white"/>
</mask>
<g mask="url(#mask1_97_2949)">
<path d="M-5.2334 31.5705L5.10954 35.7907L47.2333 4.58722L52.6897 -1.68295L41.63 -3.09253L24.4486 10.3531L10.6188 19.4141L-5.2334 31.5705Z" fill="white"/>
<path d="M-3.81836 34.5271L1.45298 36.9751L50.731 -2.26514H43.3329L-3.81689 34.5257L-3.81836 34.5271Z" fill="#F50100"/>
<path d="M52.2327 31.5705L41.8897 35.7907L-0.234023 4.58722L-5.69043 -1.68295L5.36926 -3.09253L22.5507 10.3531L36.3804 19.4141L52.2327 31.5705Z" fill="white"/>
<path d="M51.8806 33.6927L46.6107 36.1407L25.6281 19.339L19.4065 17.4634L-6.21582 -1.66162H1.18374L26.7899 17.01L33.5917 19.2597L51.8806 33.6927Z" fill="#F50100"/>
<path fill-rule="evenodd" clip-rule="evenodd" d="M29.0488 -2.83325H17.951V11.3334H-2.89648V22.6667H17.951V36.8334H29.0488V22.6667H49.9785V11.3334H29.0488V-2.83325Z" fill="#F50100"/>
<mask id="mask2_97_2949" style="mask-type:luminance" maskUnits="userSpaceOnUse" x="-3" y="-3" width="53" height="40">
<path fill-rule="evenodd" clip-rule="evenodd" d="M29.0488 -2.83325H17.951V11.3334H-2.89648V22.6667H17.951V36.8334H29.0488V22.6667H49.9785V11.3334H29.0488V-2.83325Z" fill="white"/>
</mask>
<g mask="url(#mask2_97_2949)">
<path d="M17.951 -2.83317V-5.6665H15.0135V-2.83317H17.951ZM29.0488 -2.83317H31.9863V-5.6665H29.0488V-2.83317ZM17.951 11.3335V14.1668H20.8885V11.3335H17.951ZM-2.89648 11.3335V8.50016H-5.83398V11.3335H-2.89648ZM-2.89648 22.6668H-5.83398V25.5002H-2.89648V22.6668ZM17.951 22.6668H20.8885V19.8335H17.951V22.6668ZM17.951 36.8335H15.0135V39.6668H17.951V36.8335ZM29.0488 36.8335V39.6668H31.9863V36.8335H29.0488ZM29.0488 22.6668V19.8335H26.1113V22.6668H29.0488ZM49.9785 22.6668V25.5002H52.916V22.6668H49.9785ZM49.9785 11.3335H52.916V8.50016H49.9785V11.3335ZM29.0488 11.3335H26.1113V14.1668H29.0488V11.3335ZM17.951 0.000162601H29.0488V-5.6665H17.951V0.000162601ZM20.8885 11.3335V-2.83317H15.0135V11.3335H20.8885ZM-2.89648 14.1668H17.951V8.50016H-2.89648V14.1668ZM0.0410156 22.6668V11.3335H-5.83398V22.6668H0.0410156ZM17.951 19.8335H-2.89648V25.5002H17.951V19.8335ZM20.8885 36.8335V22.6668H15.0135V36.8335H20.8885ZM29.0488 34.0002H17.951V39.6668H29.0488V34.0002ZM26.1113 22.6668V36.8335H31.9863V22.6668H26.1113ZM49.9785 19.8335H29.0488V25.5002H49.9785V19.8335ZM47.041 11.3335V22.6668H52.916V11.3335H47.041ZM29.0488 14.1668H49.9785V8.50016H29.0488V14.1668ZM26.1113 -2.83317V11.3335H31.9863V-2.83317H26.1113Z" fill="white"/>
</g>
</g>
</g>
</svg>
